<svg xmlns="http://www.w3.org/2000/svg" viewBox="0 0 512 512">
  <defs>
    <linearGradient id="mb-pebble" x1="0.15" y1="0.05" x2="0.85" y2="0.95">
      <stop offset="0" stop-color="#C4B0FF"/>
      <stop offset="0.55" stop-color="#A78BFA"/>
      <stop offset="1" stop-color="#8B72E8"/>
    </linearGradient>
    <clipPath id="mb-clip">
      <path d="M262 40 C364 32 474 98 468 222 C463 330 420 442 292 456 C160 470 44 400 46 254 C48 132 154 48 262 40 Z"/>
    </clipPath>
  </defs>
  <path fill="url(#mb-pebble)" d="M262 40 C364 32 474 98 468 222 C463 330 420 442 292 456 C160 470 44 400 46 254 C48 132 154 48 262 40 Z"/>
  <g clip-path="url(#mb-clip)">
    <!-- شانه‌ها / پیراهن -->
    <path fill="#3FBFAE" d="M92 470 C104 388 176 352 256 352 C336 352 408 388 420 470 L420 512 L92 512 Z"/>
    <path fill="#33A091" d="M420 470 C408 388 336 352 256 352 L256 512 L420 512 Z" opacity="0.35"/>
    <!-- یقه -->
    <path fill="#FAF7FF" d="M226 352 L256 384 L286 352 L286 344 L226 344 Z"/>
    <!-- گردن -->
    <rect x="230" y="308" width="52" height="56" rx="22" fill="#F3C79B"/>
    <!-- گوش‌ها -->
    <circle cx="139" cy="238" r="19" fill="#FFDCB8"/>
    <circle cx="373" cy="238" r="19" fill="#FFDCB8"/>
    <!-- صورت -->
    <ellipse cx="256" cy="236" rx="118" ry="112" fill="#FFDCB8"/>
    <!-- مو: فرق کج + گوجه‌ی بالای سر -->
    <path fill="#382E52" d="M140 232 C136 150 190 116 256 116 C322 116 376 150 372 232 C370 210 356 186 332 176 C300 162 288 178 250 172 C216 167 196 148 180 176 C162 186 146 210 140 232 Z"/>
    <circle cx="256" cy="98" r="34" fill="#382E52"/>
    <circle cx="256" cy="98" r="12" fill="#4A3B66"/>
    <!-- عینک گرد -->
    <circle cx="215" cy="252" r="34" fill="#FFFFFF" opacity="0.25"/>
    <circle cx="297" cy="252" r="34" fill="#FFFFFF" opacity="0.25"/>
    <circle cx="215" cy="252" r="34" fill="none" stroke="#2F2842" stroke-width="9"/>
    <circle cx="297" cy="252" r="34" fill="none" stroke="#2F2842" stroke-width="9"/>
    <path fill="none" stroke="#2F2842" stroke-width="9" stroke-linecap="round" d="M249 250 C253 246 259 246 263 250 M181 246 L146 238 M331 246 L366 238"/>
    <!-- چشم‌ها -->
    <circle cx="215" cy="254" r="12" fill="#2F2842"/>
    <circle cx="297" cy="254" r="12" fill="#2F2842"/>
    <circle cx="219" cy="250" r="4" fill="#FFFFFF"/>
    <circle cx="301" cy="250" r="4" fill="#FFFFFF"/>
    <!-- لپ‌ها -->
    <ellipse cx="180" cy="296" rx="16" ry="10" fill="#F99B9B" opacity="0.55"/>
    <ellipse cx="332" cy="296" rx="16" ry="10" fill="#F99B9B" opacity="0.55"/>
    <!-- لبخند -->
    <path fill="none" stroke="#2F2842" stroke-width="10" stroke-linecap="round" d="M230 304 C244 318 268 318 282 304"/>
    <!-- پاپیون -->
    <g transform="translate(256 372)">
      <path fill="#FFCF7D" d="M-6 0 L-40 -18 C-48 -22 -54 -16 -52 -8 L-46 14 C-44 22 -36 24 -30 20 Z"/>
      <path fill="#FFCF7D" d="M6 0 L40 -18 C48 -22 54 -16 52 -8 L46 14 C44 22 36 24 30 20 Z"/>
      <circle cx="0" cy="0" r="11" fill="#E09C3B"/>
    </g>
    <!-- بازو و تخته‌شاسی سمت چپ -->
    <path fill="none" stroke="#3FBFAE" stroke-width="42" stroke-linecap="round" d="M114 452 C100 420 104 396 122 376"/>
    <g transform="rotate(12 112 330)">
      <rect x="44" y="242" width="132" height="172" rx="16" fill="#E09C3B"/>
      <rect x="58" y="270" width="104" height="130" rx="8" fill="#FFFFFF"/>
      <rect x="84" y="234" width="52" height="26" rx="9" fill="#8A93A8"/>
      <path stroke="#C9D0F0" stroke-width="9" stroke-linecap="round" d="M72 296 L148 296 M72 322 L148 322 M72 348 L122 348"/>
      <path stroke="#5E97E8" stroke-width="9" stroke-linecap="round" d="M72 378 L112 378"/>
    </g>
    <circle cx="160" cy="404" r="21" fill="#FFDCB8"/>
    <ellipse cx="172" cy="392" rx="9" ry="14" fill="#FFDCB8" transform="rotate(30 172 392)"/>
    <!-- دست راست با مداد بالا -->
    <path fill="none" stroke="#3FBFAE" stroke-width="42" stroke-linecap="round" d="M400 456 C420 430 424 408 414 388"/>
    <circle cx="416" cy="378" r="22" fill="#FFDCB8"/>
    <g transform="rotate(22 416 378)">
      <path d="M406 302 L426 302 L416 276 Z" fill="#F0EAFB"/>
      <path d="M411 289 L421 289 L416 276 Z" fill="#2F2842"/>
      <rect x="406" y="302" width="20" height="76" rx="6" fill="#FFCF7D"/>
    </g>
    <circle cx="416" cy="378" r="22" fill="#FFDCB8"/>
    <ellipse cx="404" cy="366" rx="9" ry="14" fill="#FFDCB8" transform="rotate(-35 404 366)"/>
  </g>
  <!-- ستاره‌ها -->
  <path fill="#FFD98E" d="M420 96 C423 111 429 117 444 120 C429 123 423 129 420 144 C417 129 411 123 396 120 C411 117 417 111 420 96 Z"/>
  <path fill="#FFFFFF" d="M92 300 C94 310 98 314 108 316 C98 318 94 322 92 332 C90 322 86 318 76 316 C86 314 90 310 92 300 Z" opacity="0.85"/>
</svg>
