<svg xmlns="http://www.w3.org/2000/svg" viewBox="0 0 512 512">
  <defs>
    <linearGradient id="ma-pebble" x1="0.15" y1="0.05" x2="0.85" y2="0.95">
      <stop offset="0" stop-color="#C4B0FF"/>
      <stop offset="0.55" stop-color="#A78BFA"/>
      <stop offset="1" stop-color="#8B72E8"/>
    </linearGradient>
    <clipPath id="ma-clip">
      <path d="M262 40 C364 32 474 98 468 222 C463 330 420 442 292 456 C160 470 44 400 46 254 C48 132 154 48 262 40 Z"/>
    </clipPath>
  </defs>
  <path fill="url(#ma-pebble)" d="M262 40 C364 32 474 98 468 222 C463 330 420 442 292 456 C160 470 44 400 46 254 C48 132 154 48 262 40 Z"/>
  <g clip-path="url(#ma-clip)">
    <!-- شانه‌ها / پیراهن -->
    <path fill="#6D57C7" d="M92 470 C104 388 176 352 256 352 C336 352 408 388 420 470 L420 512 L92 512 Z"/>
    <path fill="#5C48B0" d="M92 470 C104 388 176 352 256 352 L256 512 L92 512 Z" opacity="0.35"/>
    <!-- یقه -->
    <path fill="#FAF7FF" d="M226 352 L256 388 L286 352 L286 344 L226 344 Z"/>
    <!-- گردن -->
    <rect x="230" y="308" width="52" height="56" rx="22" fill="#F3C79B"/>
    <!-- گوش‌ها -->
    <circle cx="139" cy="238" r="19" fill="#FFDCB8"/>
    <circle cx="373" cy="238" r="19" fill="#FFDCB8"/>
    <!-- صورت -->
    <ellipse cx="256" cy="236" rx="118" ry="112" fill="#FFDCB8"/>
    <!-- موهای کنار -->
    <path fill="#382E52" d="M138 210 C138 176 150 154 168 140 C160 168 158 192 160 216 C152 214 144 212 138 210 Z"/>
    <path fill="#382E52" d="M374 210 C374 176 362 154 344 140 C352 168 354 192 352 216 C360 214 368 212 374 210 Z"/>
    <!-- کلاه نقاب‌دار -->
    <path fill="#8B72E8" d="M144 196 C150 118 200 82 256 82 C312 82 362 118 368 196 C330 180 182 180 144 196 Z"/>
    <path fill="#6D57C7" d="M138 196 C200 176 312 176 374 196 C378 208 374 216 366 214 C310 198 202 198 146 214 C138 216 134 208 138 196 Z"/>
    <ellipse cx="256" cy="86" rx="18" ry="12" fill="#6D57C7"/>
    <!-- ابروها -->
    <path fill="none" stroke="#2F2842" stroke-width="9" stroke-linecap="round" d="M196 232 C206 224 222 224 232 230"/>
    <path fill="none" stroke="#2F2842" stroke-width="9" stroke-linecap="round" d="M280 230 C290 224 306 224 316 232"/>
    <!-- چشم‌ها -->
    <circle cx="215" cy="256" r="14" fill="#2F2842"/>
    <circle cx="297" cy="256" r="14" fill="#2F2842"/>
    <circle cx="220" cy="251" r="5" fill="#FFFFFF"/>
    <circle cx="302" cy="251" r="5" fill="#FFFFFF"/>
    <!-- لپ‌ها -->
    <ellipse cx="184" cy="288" rx="17" ry="11" fill="#F99B9B" opacity="0.55"/>
    <ellipse cx="328" cy="288" rx="17" ry="11" fill="#F99B9B" opacity="0.55"/>
    <!-- لبخند -->
    <path fill="none" stroke="#2F2842" stroke-width="10" stroke-linecap="round" d="M228 300 C242 316 270 316 284 300"/>
    <!-- بند سوت -->
    <path fill="none" stroke="#2F2842" stroke-width="6" d="M226 356 C240 396 250 412 256 424 M286 356 C272 396 262 412 256 424"/>
    <!-- سوت -->
    <g transform="rotate(-14 256 438)">
      <rect x="234" y="424" width="44" height="26" rx="10" fill="#FFCF7D"/>
      <circle cx="272" cy="446" r="13" fill="#FFCF7D"/>
      <circle cx="248" cy="436" r="5" fill="#E09C3B"/>
    </g>
    <!-- بازو و تخته‌شاسی -->
    <path fill="none" stroke="#6D57C7" stroke-width="42" stroke-linecap="round" d="M398 452 C412 420 408 396 390 376"/>
    <g transform="rotate(-12 400 330)">
      <rect x="336" y="242" width="132" height="172" rx="16" fill="#E09C3B"/>
      <rect x="350" y="270" width="104" height="130" rx="8" fill="#FFFFFF"/>
      <rect x="376" y="234" width="52" height="26" rx="9" fill="#8A93A8"/>
      <path stroke="#C9D0F0" stroke-width="9" stroke-linecap="round" d="M364 296 L440 296 M364 322 L440 322 M364 348 L414 348"/>
      <path fill="none" stroke="#2FA97C" stroke-width="11" stroke-linecap="round" stroke-linejoin="round" d="M368 378 L382 392 L410 366"/>
    </g>
    <!-- دست روی تخته -->
    <circle cx="352" cy="404" r="21" fill="#FFDCB8"/>
    <ellipse cx="340" cy="392" rx="9" ry="14" fill="#FFDCB8" transform="rotate(-30 340 392)"/>
  </g>
  <!-- مداد پشت گوش -->
  <g transform="rotate(24 130 210)">
    <rect x="112" y="170" width="18" height="64" rx="5" fill="#FFCF7D"/>
    <path d="M112 234 L130 234 L121 254 Z" fill="#F0EAFB"/>
    <path d="M117 245 L125 245 L121 254 Z" fill="#2F2842"/>
  </g>
  <!-- ستاره‌ها -->
  <path fill="#FFD98E" d="M420 96 C423 111 429 117 444 120 C429 123 423 129 420 144 C417 129 411 123 396 120 C411 117 417 111 420 96 Z"/>
  <path fill="#FFFFFF" d="M92 320 C94 330 98 334 108 336 C98 338 94 342 92 352 C90 342 86 338 76 336 C86 334 90 330 92 320 Z" opacity="0.85"/>
</svg>
